<svg width="248" height="99" viewBox="0 0 248 99" fill="none" xmlns="http://www.w3.org/2000/svg">
<path d="M7.09445 27.1987C0.214267 23.227 -2.03461 14.3267 2.12624 7.53615C6.13052 1.00114 14.5923 -1.13246 21.191 2.72903L61.8575 25.6119V58.0495C44.8095 48.4455 20.3414 34.5493 11.0352 29.3066C8.66692 27.9725 7.09445 27.1987 7.09445 27.1987Z" fill="#2B50E6"/>
<path d="M12.7621 70.8207C7.22076 66.828 7.59994 58.464 13.4797 54.9912L61.8145 25.6123V58.2236L25.2223 79.7986L12.7621 70.8207Z" fill="#8C1ECB"/>
<path d="M0.320312 69.3629C0.320312 68.2169 0.320312 67.6438 0.381082 67.11C0.675589 64.5231 2.02234 62.1716 4.10461 60.6085C4.53426 60.286 5.02852 59.996 6.01704 59.4161L26.2083 47.5703V85.2497C26.2083 92.3985 20.4131 98.1937 13.2643 98.1937C6.11555 98.1937 0.320312 92.3985 0.320312 85.2497V69.3629Z" fill="#2B50E6"/>
<path d="M73.8574 61.5356V31.1629C73.8574 30.2482 74.6008 29.5068 75.5178 29.5068H86.3458C88.9043 29.5068 91.0504 29.9656 92.7851 30.8832C94.5305 31.8006 95.8476 33.0622 96.7365 34.6677C97.636 36.2629 98.086 38.077 98.086 40.11C98.086 42.1639 97.636 43.9887 96.7365 45.5839C95.8365 47.1788 94.5088 48.4354 92.7523 49.3527C90.9963 50.2598 88.8338 50.7135 86.2643 50.7135H77.9878V45.9434H85.4512C86.9474 45.9434 88.1724 45.6933 89.1264 45.1929C90.0804 44.6924 90.7849 44.0043 91.2402 43.1284C91.7065 42.2525 91.9393 41.2466 91.9393 40.11C91.9393 38.9738 91.7065 37.9729 91.2402 37.1073C90.7849 36.242 90.0747 35.5694 89.11 35.0898C88.156 34.6 86.9257 34.3549 85.4189 34.3549H79.8902V55.5186C79.8902 58.8417 77.1893 61.5356 73.8574 61.5356Z" fill="#181818"/>
<path d="M100.191 61.5355V43.2066C100.191 40.0625 102.747 37.5138 105.899 37.5138V41.5175H106.159C106.615 40.1309 107.395 39.0623 108.501 38.3114C109.617 37.5503 110.891 37.1699 112.322 37.1699C112.647 37.1699 113.011 37.1855 113.412 37.2167C113.824 37.2376 114.165 37.274 114.436 37.3265V42.534C114.187 42.4508 113.791 42.3778 113.249 42.3151C112.718 42.2422 112.203 42.2057 111.704 42.2057C110.631 42.2057 109.666 42.4299 108.81 42.8783C107.964 43.316 107.297 43.9259 106.81 44.708C106.322 45.49 106.078 46.3918 106.078 47.4136V55.6645C106.078 58.9071 103.442 61.5355 100.191 61.5355Z" fill="#181818"/>
<path d="M128.375 62.0049C125.871 62.0049 123.708 61.5045 121.887 60.5035C120.077 59.492 118.683 58.0639 117.708 56.2183C116.732 54.3624 116.244 52.1781 116.244 49.6656C116.244 47.1948 116.732 45.0261 117.708 43.1596C118.694 41.2831 120.071 39.8236 121.838 38.7808C123.605 37.7279 125.681 37.2012 128.066 37.2012C129.605 37.2012 131.058 37.441 132.424 37.9205C133.801 38.3898 135.014 39.1198 136.066 40.1101C137.129 41.1007 137.963 42.3623 138.57 43.8949C139.177 45.4172 139.481 47.2313 139.481 49.3372C139.481 50.2959 138.704 51.0731 137.745 51.0731H119.009V47.2571H133.838C133.828 46.173 133.584 45.2085 133.107 44.3638C132.63 43.5092 131.963 42.8366 131.107 42.3464C130.261 41.8566 129.275 41.6115 128.147 41.6115C126.944 41.6115 125.887 41.893 124.976 42.4562C124.066 43.0087 123.356 43.7383 122.846 44.6454C122.347 45.5422 122.093 46.5275 122.082 47.6014V50.9325C122.082 52.3294 122.347 53.5283 122.879 54.5292C123.41 55.5198 124.153 56.281 125.107 56.8126C126.06 57.334 127.177 57.5946 128.456 57.5946C129.312 57.5946 130.088 57.4799 130.782 57.2504C131.475 57.0106 132.077 56.6614 132.586 56.2027C133.497 55.3827 134.591 54.59 135.811 54.7218L135.952 54.737C137.69 54.9251 138.888 56.6583 137.84 58.0541C137.659 58.295 137.463 58.5275 137.253 58.7517C136.289 59.7842 135.053 60.5868 133.546 61.1602C132.039 61.7233 130.315 62.0049 128.375 62.0049Z" fill="#181818"/>
<path d="M153.729 61.9577C151.766 61.9577 150.01 61.4729 148.46 60.5035C146.91 59.5337 145.685 58.1262 144.785 56.2809C143.886 54.4353 143.436 52.194 143.436 49.5561C143.436 46.8869 143.891 44.6351 144.801 42.8C145.723 40.9548 146.964 39.5628 148.525 38.6242C150.086 37.6757 151.826 37.2011 153.745 37.2011C155.208 37.2011 156.412 37.4409 157.355 37.9205C158.298 38.3898 159.046 38.9579 159.599 39.6251C160.152 40.2822 160.58 40.9023 160.883 41.4864H161.127V35.3938C161.127 32.1426 163.77 29.5068 167.03 29.5068V55.7618C167.03 58.9504 164.438 61.5356 161.241 61.5356V57.7508H160.883C160.58 58.3348 160.14 58.955 159.566 59.612C158.991 60.2584 158.233 60.8109 157.289 61.2696C156.346 61.7286 155.159 61.9577 153.729 61.9577ZM155.371 57.313C156.617 57.313 157.68 56.99 158.558 56.3432C159.436 55.6866 160.103 54.7742 160.558 53.6065C161.013 52.4387 161.241 51.0783 161.241 49.5249C161.241 47.9715 161.013 46.6213 160.558 45.4741C160.113 44.3273 159.452 43.4362 158.574 42.8C157.707 42.1639 156.639 41.8459 155.371 41.8459C154.059 41.8459 152.964 42.1746 152.086 42.8312C151.208 43.4882 150.547 44.3953 150.102 45.5524C149.658 46.7099 149.436 48.0338 149.436 49.5249C149.436 51.0263 149.658 52.3658 150.102 53.5442C150.558 54.7119 151.224 55.6345 152.103 56.3121C152.991 56.9794 154.081 57.313 155.371 57.313Z" fill="#181818"/>
<path d="M173.301 61.535V43.3843C173.301 40.1421 175.936 37.5133 179.187 37.5133V55.664C179.187 58.9065 176.552 61.535 173.301 61.535ZM176.26 34.1043C175.328 34.1043 174.526 33.8072 173.854 33.2128C173.182 32.6079 172.846 31.8836 172.846 31.0389C172.846 30.184 173.182 29.4594 173.854 28.8651C174.526 28.2604 175.328 27.958 176.26 27.958C177.204 27.958 178.006 28.2604 178.667 28.8651C179.339 29.4594 179.675 30.184 179.675 31.0389C179.675 31.8836 179.339 32.6079 178.667 33.2128C178.006 33.8072 177.204 34.1043 176.26 34.1043Z" fill="#181818"/>
<path d="M196.104 71.044C193.989 71.044 192.174 70.7677 190.656 70.2152C189.139 69.6729 187.919 68.9433 186.997 68.0256C186.881 67.9097 186.769 67.7919 186.661 67.6726C185.524 66.4114 186.496 64.6459 188.153 64.2598L188.678 64.1375C189.677 63.9045 190.699 64.4054 191.42 65.1327C191.876 65.6016 192.488 65.9877 193.258 66.2898C194.038 66.6025 195.019 66.7591 196.201 66.7591C197.87 66.7591 199.253 66.3681 200.348 65.586C201.443 64.8146 201.99 63.5428 201.99 61.7701V57.2192H201.697C201.394 57.8033 200.949 58.4025 200.364 59.0177C199.789 59.633 199.025 60.149 198.071 60.5659C197.128 60.9831 195.941 61.1917 194.51 61.1917C192.591 61.1917 190.851 60.7589 189.29 59.8936C187.74 59.0177 186.504 57.7143 185.583 55.9838C184.672 54.2427 184.217 52.0637 184.217 49.4467C184.217 46.8087 184.672 44.5831 185.583 42.7689C186.504 40.9442 187.746 39.5629 189.307 38.6243C190.868 37.6758 192.608 37.2012 194.526 37.2012C195.99 37.2012 197.193 37.441 198.136 37.9205C199.09 38.3898 199.849 38.9579 200.413 39.6252C200.976 40.2822 201.404 40.9024 201.697 41.4864H202.022C202.022 39.2927 203.806 37.5139 206.005 37.5139H207.827V61.9266C207.827 63.9805 207.318 65.6799 206.299 67.0247C205.28 68.3699 203.887 69.3762 202.12 70.0431C200.353 70.7103 198.347 71.044 196.104 71.044ZM196.152 56.7499C197.399 56.7499 198.461 56.4581 199.339 55.8744C200.218 55.2903 200.884 54.4513 201.339 53.3565C201.795 52.2617 202.022 50.9481 202.022 49.4155C202.022 47.9035 201.795 46.5796 201.339 45.443C200.895 44.3068 200.234 43.4256 199.355 42.8001C198.488 42.164 197.421 41.8459 196.152 41.8459C194.841 41.8459 193.746 42.1746 192.868 42.8313C191.99 43.4883 191.328 44.39 190.884 45.5369C190.439 46.6734 190.217 47.9662 190.217 49.4155C190.217 50.8854 190.439 52.1732 190.884 53.2782C191.339 54.373 192.006 55.228 192.884 55.8428C193.773 56.4478 194.862 56.7499 196.152 56.7499Z" fill="#181818"/>
<path d="M219.744 29.5068V55.6646C219.744 58.9071 217.108 61.5356 213.857 61.5356V35.3779C213.857 32.1353 216.493 29.5068 219.744 29.5068Z" fill="#181818"/>
<path d="M236.859 62.0049C234.355 62.0049 232.192 61.5045 230.371 60.5035C228.561 59.492 227.168 58.0639 226.192 56.2183C225.216 54.3624 224.729 52.1781 224.729 49.6656C224.729 47.1948 225.216 45.0261 226.192 43.1596C227.178 41.2831 228.555 39.8236 230.322 38.7808C232.089 37.7279 234.165 37.2012 236.55 37.2012C238.089 37.2012 239.542 37.441 240.908 37.9205C242.285 38.3898 243.499 39.1198 244.55 40.1101C245.613 41.1007 246.447 42.3623 247.054 43.8949C247.662 45.4172 247.965 47.2313 247.965 49.3372C247.965 50.2959 247.188 51.0731 246.229 51.0731H227.493V47.2571H242.323C242.312 46.173 242.068 45.2085 241.591 44.3638C241.114 43.5092 240.447 42.8366 239.591 42.3464C238.745 41.8566 237.759 41.6115 236.631 41.6115C235.428 41.6115 234.371 41.893 233.461 42.4562C232.55 43.0087 231.84 43.7383 231.33 44.6454C230.832 45.5422 230.577 46.5275 230.566 47.6014V50.9325C230.566 52.3294 230.832 53.5283 231.363 54.5292C231.894 55.5198 232.637 56.281 233.591 56.8126C234.545 57.334 235.661 57.5946 236.94 57.5946C237.797 57.5946 238.572 57.4799 239.266 57.2504C239.959 57.0106 240.561 56.6614 241.07 56.2027C241.981 55.3827 243.075 54.59 244.295 54.7218L244.436 54.737C246.174 54.9251 247.372 56.6583 246.324 58.0541C246.143 58.295 245.947 58.5275 245.737 58.7517C244.773 59.7842 243.537 60.5868 242.03 61.1602C240.523 61.7233 238.799 62.0049 236.859 62.0049Z" fill="#181818"/>
</svg>
